<svg width="175" height="33" viewBox="0 0 175 33" fill="none" xmlns="http://www.w3.org/2000/svg">
<path fill-rule="evenodd" clip-rule="evenodd" d="M27.8737 23.9107H30.9975L30.9975 9.27252L27.8737 9.27252L27.8737 23.9107ZM31.7431 23.9131H31.7436C35.7228 23.9131 38.9486 20.6363 38.9486 16.594C38.9486 12.5518 35.7228 9.27494 31.7436 9.27494H31.7431V12.0036H31.7436C34.1755 12.0036 36.2199 14.0182 36.2199 16.594C36.2199 19.1698 34.1755 21.1845 31.7436 21.1845H31.7431V23.9131ZM27.1251 23.9132H27.1246C23.1454 23.9132 19.9196 20.6364 19.9196 16.5941C19.9196 12.5519 23.1454 9.27505 27.1246 9.27505H27.1251V12.0037H27.1246C24.6927 12.0037 22.6483 14.0184 22.6483 16.5941C22.6483 19.1699 24.6927 21.1846 27.1246 21.1846H27.1251V23.9132Z" fill="url(#paint0_linear_303_197)" style=""/>
<path d="M74.7415 22.0194C73.7171 22.0194 72.7884 21.7992 71.9555 21.3588C71.1322 20.9089 70.4812 20.2914 70.0025 19.5063C69.5334 18.7117 69.2988 17.8166 69.2988 16.8209C69.2988 15.8253 69.5334 14.9349 70.0025 14.1499C70.4812 13.3552 71.1322 12.7377 71.9555 12.2973C72.7884 11.8474 73.7219 11.6224 74.7558 11.6224C75.627 11.6224 76.4121 11.7756 77.111 12.0819C77.8194 12.3883 78.413 12.8287 78.8917 13.4031L77.3982 14.7817C76.7184 13.9967 75.876 13.6042 74.8707 13.6042C74.2484 13.6042 73.6932 13.743 73.2049 14.0206C72.7166 14.2887 72.3337 14.6668 72.0561 15.1551C71.788 15.6434 71.654 16.1986 71.654 16.8209C71.654 17.4432 71.788 17.9985 72.0561 18.4867C72.3337 18.975 72.7166 19.3579 73.2049 19.6356C73.6932 19.9036 74.2484 20.0377 74.8707 20.0377C75.876 20.0377 76.7184 19.6404 77.3982 18.8458L78.8917 20.2244C78.413 20.8084 77.8194 21.2535 77.111 21.5599C76.4025 21.8663 75.6127 22.0194 74.7415 22.0194ZM83.9954 14.0063C84.9528 14.0063 85.7234 14.2935 86.3074 14.8679C86.901 15.4423 87.1978 16.2944 87.1978 17.4241V21.8471H84.9575V17.7687C84.9575 17.156 84.8235 16.7012 84.5554 16.4045C84.2874 16.0981 83.8996 15.9449 83.3922 15.9449C82.8274 15.9449 82.3774 16.122 82.0424 16.4763C81.7073 16.8209 81.5397 17.3379 81.5397 18.0272V21.8471H79.2995V11.1916H81.5397V14.9253C81.8365 14.6285 82.1955 14.4036 82.6168 14.2504C83.038 14.0876 83.4976 14.0063 83.9954 14.0063ZM96.1482 14.1211V21.8471H94.0085V20.9568C93.4532 21.6269 92.649 21.962 91.5959 21.962C90.8683 21.962 90.2077 21.7992 89.6142 21.4737C89.0302 21.1482 88.5706 20.6839 88.2356 20.0808C87.9005 19.4776 87.7329 18.7787 87.7329 17.9841C87.7329 17.1895 87.9005 16.4906 88.2356 15.8875C88.5706 15.2843 89.0302 14.82 89.6142 14.4945C90.2077 14.169 90.8683 14.0063 91.5959 14.0063C92.582 14.0063 93.3527 14.3174 93.908 14.9397V14.1211H96.1482ZM91.9837 20.1238C92.5485 20.1238 93.0176 19.9324 93.391 19.5494C93.7644 19.1569 93.9511 18.6351 93.9511 17.9841C93.9511 17.3331 93.7644 16.8161 93.391 16.4332C93.0176 16.0407 92.5485 15.8444 91.9837 15.8444C91.4092 15.8444 90.9353 16.0407 90.562 16.4332C90.1886 16.8161 90.0019 17.3331 90.0019 17.9841C90.0019 18.6351 90.1886 19.1569 90.562 19.5494C90.9353 19.9324 91.4092 20.1238 91.9837 20.1238ZM107.111 14.0063C108.078 14.0063 108.844 14.2935 109.409 14.8679C109.984 15.4327 110.271 16.2848 110.271 17.4241V21.8471H108.031V17.7687C108.031 17.156 107.901 16.7012 107.643 16.4045C107.394 16.0981 107.035 15.9449 106.566 15.9449C106.039 15.9449 105.623 16.1173 105.316 16.4619C105.01 16.797 104.857 17.2996 104.857 17.9698V21.8471H102.617V17.7687C102.617 16.5529 102.128 15.9449 101.152 15.9449C100.635 15.9449 100.223 16.1173 99.9168 16.4619C99.6105 16.797 99.4573 17.2996 99.4573 17.9698V21.8471H97.2171V14.1211H99.3568V15.0115C99.644 14.686 99.9934 14.4371 100.405 14.2647C100.826 14.0924 101.286 14.0063 101.784 14.0063C102.329 14.0063 102.822 14.1163 103.263 14.3365C103.703 14.5472 104.057 14.8583 104.326 15.27C104.641 14.8679 105.039 14.5567 105.517 14.3365C106.006 14.1163 106.537 14.0063 107.111 14.0063ZM119.199 14.1211V21.8471H117.059V20.9568C116.504 21.6269 115.699 21.962 114.646 21.962C113.919 21.962 113.258 21.7992 112.665 21.4737C112.081 21.1482 111.621 20.6839 111.286 20.0808C110.951 19.4776 110.783 18.7787 110.783 17.9841C110.783 17.1895 110.951 16.4906 111.286 15.8875C111.621 15.2843 112.081 14.82 112.665 14.4945C113.258 14.169 113.919 14.0063 114.646 14.0063C115.632 14.0063 116.403 14.3174 116.958 14.9397V14.1211H119.199ZM115.034 20.1238C115.599 20.1238 116.068 19.9324 116.441 19.5494C116.815 19.1569 117.001 18.6351 117.001 17.9841C117.001 17.3331 116.815 16.8161 116.441 16.4332C116.068 16.0407 115.599 15.8444 115.034 15.8444C114.46 15.8444 113.986 16.0407 113.612 16.4332C113.239 16.8161 113.052 17.3331 113.052 17.9841C113.052 18.6351 113.239 19.1569 113.612 19.5494C113.986 19.9324 114.46 20.1238 115.034 20.1238ZM120.425 11.7947H124.992C126.083 11.7947 127.046 12.0054 127.879 12.4266C128.721 12.8383 129.372 13.4223 129.832 14.1786C130.301 14.9349 130.535 15.8157 130.535 16.8209C130.535 17.8262 130.301 18.7069 129.832 19.4633C129.372 20.2196 128.721 20.8084 127.879 21.2296C127.046 21.6413 126.083 21.8471 124.992 21.8471H120.425V11.7947ZM124.877 19.9372C125.882 19.9372 126.682 19.6595 127.275 19.1042C127.879 18.5394 128.18 17.7783 128.18 16.8209C128.18 15.8635 127.879 15.1072 127.275 14.552C126.682 13.9871 125.882 13.7047 124.877 13.7047H122.752V19.9372H124.877ZM135.808 11.6224C136.737 11.6224 137.546 11.8043 138.235 12.1681C138.924 12.5319 139.46 13.068 139.843 13.7765C140.226 14.4849 140.418 15.3418 140.418 16.347V21.8471H138.091V19.4345H133.496V21.8471H131.198V16.347C131.198 15.3418 131.39 14.4849 131.773 13.7765C132.156 13.068 132.692 12.5319 133.381 12.1681C134.07 11.8043 134.879 11.6224 135.808 11.6224ZM138.091 17.5677V16.1316C138.091 15.2987 137.885 14.6716 137.474 14.2504C137.062 13.8196 136.502 13.6042 135.794 13.6042C135.076 13.6042 134.511 13.8196 134.099 14.2504C133.697 14.6716 133.496 15.2987 133.496 16.1316V17.5677H138.091ZM146.577 22.0194C145.533 22.0194 144.59 21.7945 143.748 21.3445C142.915 20.8945 142.259 20.277 141.781 19.492C141.311 18.6974 141.077 17.807 141.077 16.8209C141.077 15.8348 141.311 14.9493 141.781 14.1642C142.259 13.3696 142.915 12.7473 143.748 12.2973C144.59 11.8474 145.533 11.6224 146.577 11.6224C147.62 11.6224 148.559 11.8474 149.392 12.2973C150.225 12.7473 150.88 13.3696 151.359 14.1642C151.838 14.9493 152.077 15.8348 152.077 16.8209C152.077 17.807 151.838 18.6974 151.359 19.492C150.88 20.277 150.225 20.8945 149.392 21.3445C148.559 21.7945 147.62 22.0194 146.577 22.0194ZM146.577 20.0377C147.171 20.0377 147.707 19.9036 148.185 19.6356C148.664 19.3579 149.037 18.975 149.305 18.4867C149.583 17.9985 149.722 17.4432 149.722 16.8209C149.722 16.1986 149.583 15.6434 149.305 15.1551C149.037 14.6668 148.664 14.2887 148.185 14.0206C147.707 13.743 147.171 13.6042 146.577 13.6042C145.983 13.6042 145.447 13.743 144.969 14.0206C144.49 14.2887 144.112 14.6668 143.834 15.1551C143.566 15.6434 143.432 16.1986 143.432 16.8209C143.432 17.4432 143.566 17.9985 143.834 18.4867C144.112 18.975 144.49 19.3579 144.969 19.6356C145.447 19.9036 145.983 20.0377 146.577 20.0377Z" fill="#0E0E0E" style="fill:#0E0E0E;fill:color(display-p3 0.0560 0.0560 0.0560);fill-opacity:1;"/>
<path d="M51.0342 14.6094C50.1725 14.1116 49.2487 13.7909 48.2626 13.6472V21.8471H45.9362V13.6472C44.9501 13.7909 44.0214 14.1116 43.1502 14.6094L42.3604 12.8718C43.0497 12.4601 43.7965 12.149 44.6006 11.9383C45.4048 11.7277 46.233 11.6224 47.085 11.6224C47.9467 11.6224 48.7796 11.7277 49.5837 11.9383C50.3975 12.149 51.1443 12.4601 51.824 12.8718L51.0342 14.6094ZM56.4006 14.0063C57.358 14.0063 58.1287 14.2935 58.7127 14.8679C59.3062 15.4423 59.603 16.2944 59.603 17.4241V21.8471H57.3628V17.7687C57.3628 17.156 57.2287 16.7013 56.9607 16.4045C56.6926 16.0981 56.3049 15.9449 55.7975 15.9449C55.2326 15.9449 54.7827 16.122 54.4476 16.4763C54.1125 16.8209 53.945 17.3379 53.945 18.0272V21.8471H51.7047V11.1916H53.945V14.9253C54.2418 14.6285 54.6008 14.4036 55.022 14.2504C55.4433 14.0876 55.9028 14.0063 56.4006 14.0063ZM64.6043 20.1669C65.0064 20.1669 65.3606 20.1095 65.667 19.9946C65.9829 19.8701 66.2749 19.6787 66.543 19.4202L67.7349 20.7126C67.0073 21.5455 65.9446 21.962 64.5469 21.962C63.6756 21.962 62.905 21.7945 62.2348 21.4594C61.5647 21.1147 61.0477 20.6408 60.6839 20.0377C60.3201 19.4345 60.1382 18.75 60.1382 17.9841C60.1382 17.2278 60.3153 16.5481 60.6695 15.9449C61.0333 15.3322 61.5264 14.8583 62.1486 14.5232C62.7805 14.1786 63.489 14.0063 64.274 14.0063C65.0112 14.0063 65.6813 14.1642 66.2845 14.4802C66.8876 14.7865 67.3663 15.2365 67.7205 15.83C68.0843 16.414 68.2662 17.1081 68.2662 17.9123L62.5507 19.0181C62.7135 19.401 62.9672 19.6882 63.3118 19.8797C63.6661 20.0712 64.0969 20.1669 64.6043 20.1669ZM64.274 15.7008C63.7092 15.7008 63.2496 15.8827 62.8954 16.2465C62.5412 16.6103 62.3545 17.1129 62.3353 17.7544L66.0978 17.022C65.9925 16.6199 65.7771 16.2992 65.4516 16.0598C65.1261 15.8205 64.7335 15.7008 64.274 15.7008Z" fill="#0E0E0E" style="fill:#0E0E0E;fill:color(display-p3 0.0560 0.0560 0.0560);fill-opacity:1;"/>
<rect x="0.301812" y="0.301812" width="173.844" height="31.9921" rx="10.5634" stroke="#A3A1A1" style="stroke:#A3A1A1;stroke:color(display-p3 0.6376 0.6302 0.6302);stroke-opacity:1;" stroke-width="0.603624"/>
<defs>
<linearGradient id="paint0_linear_303_197" x1="14.9796" y1="16.5929" x2="51.8687" y2="16.5929" gradientUnits="userSpaceOnUse">
<stop stop-color="#89D3DC" style="stop-color:#89D3DC;stop-color:color(display-p3 0.5373 0.8275 0.8627);stop-opacity:1;"/>
<stop offset="1" stop-color="#7FC786" style="stop-color:#7FC786;stop-color:color(display-p3 0.4980 0.7804 0.5255);stop-opacity:1;"/>
</linearGradient>
</defs>
</svg>
