<svg width="27" height="28" viewBox="0 0 27 28" fill="none" xmlns="http://www.w3.org/2000/svg">
<path d="M23.3549 1.19493C23.3549 0.532967 22.8164 3.05176e-05 22.16 3.05176e-05C21.4981 3.05176e-05 20.9651 0.538576 20.9651 1.19493V2.74886H19.4112C18.7492 2.74886 18.2163 3.28741 18.2163 3.94376C18.2163 4.60572 18.7549 5.13866 19.4112 5.13866H20.9651V6.69259C20.9651 7.35455 21.5037 7.88749 22.16 7.88749C22.822 7.88749 23.3549 7.34894 23.3549 6.69259V5.13866H24.9089C25.5708 5.13866 26.1038 4.60011 26.1038 3.94376C26.1038 3.2818 25.5652 2.74886 24.9089 2.74886H23.3549V1.19493Z" fill="#528978" style="fill:#528978;fill:color(display-p3 0.3216 0.5373 0.4706);fill-opacity:1;"/>
<path d="M14.5757 5.14425C17.2965 5.18352 19.5292 7.44429 19.5292 10.1707C19.5292 12.9251 17.2572 15.1971 14.5027 15.1971C13.6837 15.1971 12.9039 14.9952 12.2139 14.6361C11.1649 14.092 10.3234 13.1832 9.8634 12.0836C9.82974 12.0051 9.79608 11.921 9.76803 11.8424C9.5773 11.3151 9.47632 10.7541 9.47632 10.1651C9.47632 7.29283 11.7483 5.13864 14.5027 5.13864C14.5252 5.14425 14.5476 5.14425 14.5757 5.14425Z" fill="#528978" style="fill:#528978;fill:color(display-p3 0.3216 0.5373 0.4706);fill-opacity:1;"/>
<path d="M7.79913 11.4161C6.03764 10.6363 4.80908 8.86919 4.80908 6.8216C4.80908 4.04472 7.05863 1.79517 9.83551 1.79517C11.2997 1.79517 12.618 2.42347 13.538 3.42202C10.2675 3.90447 7.68133 6.78794 7.68133 10.1707C7.68133 10.5914 7.7206 11.0122 7.79913 11.4161Z" fill="#528978" style="fill:#528978;fill:color(display-p3 0.3216 0.5373 0.4706);fill-opacity:1;"/>
<path d="M3.6083 22.2543C4.96588 19.2138 7.54081 16.8632 10.7048 15.8086C9.46499 14.9615 8.5057 13.7273 8.02325 12.2912C3.75416 13.1551 0.539708 16.7062 0.0179916 21.0594C-0.0998153 21.7775 0.377022 22.2543 0.977277 22.2543H3.6083Z" fill="#528978" style="fill:#528978;fill:color(display-p3 0.3216 0.5373 0.4706);fill-opacity:1;"/>
<path d="M10.6766 17.7328C8.50556 18.6135 6.7104 20.2179 5.59404 22.2543C4.9994 23.3426 4.6011 24.5544 4.44963 25.8446C4.33183 26.5627 4.80866 27.0395 5.40892 27.0395H23.6017C24.2019 27.0395 24.6788 26.4393 24.561 25.8446C23.9607 20.8182 19.6523 16.8689 14.5081 16.8689C13.6722 16.8689 12.8308 16.9867 12.1127 17.2279C12.0005 17.2559 11.9051 17.2952 11.821 17.3457C11.4227 17.4579 11.0468 17.5813 10.6766 17.7328Z" fill="#528978" style="fill:#528978;fill:color(display-p3 0.3216 0.5373 0.4706);fill-opacity:1;"/>
</svg>
