<svg width="34" height="28" viewBox="0 0 34 28" fill="none" xmlns="http://www.w3.org/2000/svg">
<path d="M25.2747 19.0986C25.0119 17.3126 24.1175 15.6799 22.754 14.4968C21.3904 13.3137 19.648 12.6585 17.8427 12.6502H16.1603C14.355 12.6585 12.6126 13.3137 11.249 14.4968C9.88545 15.6799 8.99112 17.3126 8.72828 19.0986L7.92183 24.7374C7.89607 24.9197 7.91309 25.1054 7.97155 25.28C8.03001 25.4546 8.1283 25.6131 8.25864 25.7431C8.57489 26.0594 10.5151 27.6723 17.0031 27.6723C23.491 27.6723 25.4265 26.0657 25.7475 25.7431C25.8779 25.6131 25.9761 25.4546 26.0346 25.28C26.0931 25.1054 26.1101 24.9197 26.0843 24.7374L25.2747 19.0986Z" fill="#528978" style="fill:#528978;fill:color(display-p3 0.3216 0.5373 0.4706);fill-opacity:1;"/>
<path d="M9.97914 13.5199C8.45089 14.9287 7.45654 16.8224 7.16448 18.8804L6.5794 22.9284C1.88303 22.8968 0.459881 21.189 0.22269 20.8412C0.131004 20.7148 0.065576 20.5713 0.030269 20.4192C-0.00503801 20.2671 -0.00950764 20.1095 0.0171242 19.9556L0.365004 17.9949C0.546253 16.9701 0.971931 16.0042 1.60594 15.179C2.23996 14.3538 3.06361 13.6936 4.00707 13.2545C4.95052 12.8153 5.98596 12.6101 7.02558 12.6563C8.06521 12.7025 9.07836 12.9988 9.97914 13.5199Z" fill="#528978" style="fill:#528978;fill:color(display-p3 0.3216 0.5373 0.4706);fill-opacity:1;"/>
<path d="M33.983 19.9556C34.0096 20.1095 34.0052 20.2671 33.9699 20.4192C33.9346 20.5713 33.8691 20.7148 33.7774 20.8412C33.5403 21.189 32.1171 22.8968 27.4207 22.9284L26.8357 18.8804C26.5436 16.8224 25.5492 14.9287 24.021 13.5199C24.9218 12.9988 25.9349 12.7025 26.9746 12.6563C28.0142 12.6101 29.0496 12.8153 29.9931 13.2545C30.9365 13.6936 31.7602 14.3538 32.3942 15.179C33.0282 16.0042 33.4539 16.9701 33.6351 17.9949L33.983 19.9556Z" fill="#528978" style="fill:#528978;fill:color(display-p3 0.3216 0.5373 0.4706);fill-opacity:1;"/>
<path d="M10.248 10.0411C9.84999 10.6056 9.32157 11.0657 8.70767 11.3823C8.09376 11.6988 7.41251 11.8626 6.72179 11.8595C6.03276 11.8595 5.3536 11.6958 4.74026 11.3818C4.12693 11.0678 3.59699 10.6126 3.1941 10.0536C2.79122 9.49467 2.52694 8.84797 2.42303 8.16682C2.31911 7.48567 2.37855 6.78958 2.59644 6.13591C2.81433 5.48224 3.18444 4.88971 3.67625 4.40714C4.16807 3.92457 4.76752 3.56577 5.42521 3.36033C6.0829 3.15488 6.77999 3.10866 7.45904 3.22548C8.13809 3.3423 8.77967 3.61881 9.33089 4.03223C9.17235 4.65225 9.09265 5.28979 9.0937 5.92976C9.09491 7.38002 9.49419 8.80212 10.248 10.0411Z" fill="#528978" style="fill:#528978;fill:color(display-p3 0.3216 0.5373 0.4706);fill-opacity:1;"/>
<path d="M31.6267 7.51103C31.6271 8.0822 31.5149 8.64785 31.2965 9.17562C31.0781 9.70339 30.7578 10.1829 30.354 10.5868C29.9501 10.9907 29.4706 11.311 28.9428 11.5294C28.415 11.7478 27.8494 11.8599 27.2782 11.8595C26.5875 11.8626 25.9062 11.6988 25.2923 11.3823C24.6784 11.0657 24.15 10.6056 23.752 10.0411C24.5058 8.80212 24.9051 7.38002 24.9063 5.92976C24.9073 5.28979 24.8276 4.65225 24.6691 4.03223C25.3151 3.54769 26.0834 3.25263 26.8877 3.1801C27.692 3.10758 28.5006 3.26046 29.2229 3.62161C29.9452 3.98277 30.5527 4.53793 30.9772 5.22489C31.4018 5.91185 31.6267 6.70346 31.6267 7.51103Z" fill="#528978" style="fill:#528978;fill:color(display-p3 0.3216 0.5373 0.4706);fill-opacity:1;"/>
<path d="M16.9996 11.8595C20.2745 11.8595 22.9294 9.20467 22.9294 5.92975C22.9294 2.65483 20.2745 -2.28882e-05 16.9996 -2.28882e-05C13.7247 -2.28882e-05 11.0698 2.65483 11.0698 5.92975C11.0698 9.20467 13.7247 11.8595 16.9996 11.8595Z" fill="#528978" style="fill:#528978;fill:color(display-p3 0.3216 0.5373 0.4706);fill-opacity:1;"/>
</svg>
