<svg width="24" height="33" viewBox="0 0 24 33" fill="none" xmlns="http://www.w3.org/2000/svg">
<path d="M15.4937 9.76241C15.4103 9.79312 15.3268 9.82717 15.2433 9.85455C15.3542 10.2484 16.1119 12.7534 18.0026 14.6414C18.265 14.9025 18.265 15.3244 18.004 15.5854C17.8738 15.7163 17.7022 15.7817 17.5313 15.7817C17.3604 15.7817 17.1888 15.7163 17.06 15.5868C15.9283 14.4578 15.1639 13.1586 14.6752 12.1098C14.4188 12.7681 14.059 13.4904 13.5589 14.1267C13.3313 14.4171 12.9113 14.4685 12.6229 14.2395C12.3325 14.0118 12.2818 13.5919 12.5094 13.3028C13.348 12.2353 13.7225 10.8246 13.8587 10.1944C13.2071 10.3059 12.5635 10.3553 11.9439 10.3553C10.2976 10.3553 8.83681 10.0321 7.90414 9.76308C4.319 12.6699 -0.027244 19.6726 0.000128643 25.525C0.0148164 28.6676 1.7206 32.0491 5.43126 32.0491H17.9699H17.9893C20.9522 31.9596 23.5232 28.9066 23.4918 25.5157C23.4391 19.6553 19.0655 12.6619 15.4937 9.76241ZM11.7463 21.9205C13.4274 21.9205 14.7947 23.0842 14.7947 24.5156C14.7947 25.7514 13.7739 26.7828 12.4139 27.0426V27.8297C12.4139 28.1989 12.1155 28.4973 11.7463 28.4973C11.3771 28.4973 11.0787 28.1989 11.0787 27.8297V27.0426C9.71808 26.7822 8.69661 25.7494 8.69661 24.5156C8.69661 24.1464 8.99571 23.848 9.36424 23.848C9.73277 23.848 10.0319 24.1464 10.0319 24.5156C10.0319 25.1979 10.817 25.7747 11.7463 25.7747C12.675 25.7747 13.4594 25.1992 13.4594 24.5156C13.4594 23.8333 12.6757 23.2558 11.7463 23.2558C10.0646 23.2558 8.69661 22.0921 8.69661 20.6601C8.69661 19.4249 9.71808 18.3928 11.0787 18.1338V17.4434C11.0787 17.0742 11.3778 16.7758 11.7463 16.7758C12.1149 16.7758 12.4139 17.0742 12.4139 17.4434V18.1338C13.7739 18.3941 14.7947 19.4263 14.7947 20.6601C14.7947 21.0299 14.4963 21.3277 14.1271 21.3277C13.7579 21.3277 13.4594 21.0299 13.4594 20.6601C13.4594 20.0071 12.7371 19.3949 11.7423 19.3949C10.7476 19.3949 10.0312 20.0078 10.0312 20.6601C10.0319 21.3437 10.817 21.9205 11.7463 21.9205ZM7.62174 8.27094C5.96202 6.5271 4.3684 4.02885 4.39444 2.65154C4.42381 2.03132 4.52729 1.38305 5.07608 1.13136C5.65758 0.864975 6.19235 1.28157 6.66236 1.64743C6.9708 1.88778 7.43747 2.24562 7.67248 2.19956C7.80934 2.16818 7.9896 1.95521 8.52236 1.18276C9.05579 0.409655 9.70473 -0.0463329 10.3717 0.00373896C11.1822 0.0631576 11.6014 0.832929 12.0074 1.578C12.3252 2.12478 12.6056 2.61883 13.0035 3.01072C13.1096 2.92059 13.2812 2.71229 13.4014 2.56542C14.057 1.76694 15.2781 0.2788 17.8491 1.30761C18.1034 1.40842 18.269 1.65478 18.269 1.92783C18.269 3.7598 16.9478 6.48638 15.5257 8.30833C12.3525 9.71368 8.63052 8.61877 7.62174 8.27094Z" fill="#528978" style="fill:#528978;fill:color(display-p3 0.3216 0.5373 0.4706);fill-opacity:1;"/>
<ellipse cx="11" cy="22.5" rx="5" ry="6.5" fill="#528978" style="fill:#528978;fill:color(display-p3 0.3216 0.5373 0.4706);fill-opacity:1;"/>
</svg>
