<svg width="27" height="27" viewBox="0 0 27 27" fill="none" xmlns="http://www.w3.org/2000/svg">
<path fill-rule="evenodd" clip-rule="evenodd" d="M27 7.2V5.4C27 3.222 25.452 1.404 23.4 0.99V0.9C23.4 0.405 22.995 0 22.5 0C22.005 0 21.6 0.405 21.6 0.9H18.9C18.9 0.405 18.495 0 18 0C17.505 0 17.1 0.405 17.1 0.9H14.4C14.4 0.405 13.995 0 13.5 0C13.005 0 12.6 0.405 12.6 0.9H9.9C9.9 0.405 9.495 0 9 0C8.505 0 8.1 0.405 8.1 0.9H5.4C5.4 0.405 4.995 0 4.5 0C4.005 0 3.6 0.405 3.6 0.9V0.99C1.548 1.404 0 3.222 0 5.4V7.2H27ZM3.6 0.99V1.8C3.6 2.295 4.005 2.7 4.5 2.7C4.995 2.7 5.4 2.295 5.4 1.8V0.9H4.5C4.194 0.9 3.888 0.927 3.6 0.99ZM8.1 0.9V1.8C8.1 2.295 8.505 2.7 9 2.7C9.495 2.7 9.9 2.295 9.9 1.8V0.9H8.1ZM12.6 0.9V1.8C12.6 2.295 13.005 2.7 13.5 2.7C13.995 2.7 14.4 2.295 14.4 1.8V0.9H12.6ZM17.1 0.9V1.8C17.1 2.295 17.505 2.7 18 2.7C18.495 2.7 18.9 2.295 18.9 1.8V0.9H17.1ZM21.6 0.9V1.8C21.6 2.295 22.005 2.7 22.5 2.7C22.995 2.7 23.4 2.295 23.4 1.8V0.99C23.112 0.927 22.806 0.9 22.5 0.9H21.6ZM20.7 27C24.183 27 27 24.183 27 20.7C27 17.217 24.183 14.4 20.7 14.4C17.217 14.4 14.4 17.217 14.4 20.7C14.4 24.183 17.217 27 20.7 27ZM22.5 21.6L23.4 21.6C23.8971 21.6 24.3 21.1971 24.3 20.7C24.3 20.2029 23.8971 19.8 23.4 19.8H22.5H21.6V18V17.1C21.6 16.6029 21.1971 16.2 20.7 16.2C20.2029 16.2 19.8 16.6029 19.8 17.1V18V19.8H17.55C17.0529 19.8 16.65 20.2029 16.65 20.7C16.65 21.1971 17.0529 21.6 17.55 21.6H19.8V24.3C19.8 24.7971 20.2029 25.2 20.7 25.2C21.1971 25.2 21.6 24.7971 21.6 24.3V21.6L22.5 21.6ZM27 15.624V9H0V22.5C0 24.984 2.016 27 4.5 27H15.624C13.779 25.515 12.6 23.247 12.6 20.7C12.6 16.236 16.236 12.6 20.7 12.6C23.247 12.6 25.515 13.779 27 15.624ZM5.4 21.6C5.895 21.6 6.3 22.005 6.3 22.5C6.3 22.995 5.895 23.4 5.4 23.4C4.905 23.4 4.5 22.995 4.5 22.5C4.5 22.005 4.905 21.6 5.4 21.6ZM5.4 17.1C5.895 17.1 6.3 17.505 6.3 18C6.3 18.495 5.895 18.9 5.4 18.9C4.905 18.9 4.5 18.495 4.5 18C4.5 17.505 4.905 17.1 5.4 17.1ZM5.4 12.6C5.895 12.6 6.3 13.005 6.3 13.5C6.3 13.995 5.895 14.4 5.4 14.4C4.905 14.4 4.5 13.995 4.5 13.5C4.5 13.005 4.905 12.6 5.4 12.6ZM10.8 21.6C11.295 21.6 11.7 22.005 11.7 22.5C11.7 22.995 11.295 23.4 10.8 23.4C10.305 23.4 9.9 22.995 9.9 22.5C9.9 22.005 10.305 21.6 10.8 21.6ZM10.8 17.1C11.295 17.1 11.7 17.505 11.7 18C11.7 18.495 11.295 18.9 10.8 18.9C10.305 18.9 9.9 18.495 9.9 18C9.9 17.505 10.305 17.1 10.8 17.1ZM10.8 12.6C11.295 12.6 11.7 13.005 11.7 13.5C11.7 13.995 11.295 14.4 10.8 14.4C10.305 14.4 9.9 13.995 9.9 13.5C9.9 13.005 10.305 12.6 10.8 12.6Z" fill="#528978" style="fill:#528978;fill:color(display-p3 0.3216 0.5373 0.4706);fill-opacity:1;"/>
</svg>
