<svg width="28" height="28" viewBox="0 0 28 28" fill="none" xmlns="http://www.w3.org/2000/svg">
<path d="M5.50024 20.0002C5.77639 20.0002 6.00024 19.7763 6.00024 19.5002C6.00024 19.224 5.77639 19.0002 5.50024 19.0002C5.2241 19.0002 5.00024 19.224 5.00024 19.5002C5.00024 19.7763 5.2241 20.0002 5.50024 20.0002Z" fill="#528978" style="fill:#528978;fill:color(display-p3 0.3222 0.5369 0.4725);fill-opacity:1;"/>
<path d="M1.5 23.0002H7.5C7.89782 23.0002 8.27936 22.8421 8.56066 22.5608C8.84196 22.2795 9 21.898 9 21.5002V17.5002C9 17.1023 8.84196 16.7208 8.56066 16.4395C8.27936 16.1582 7.89782 16.0002 7.5 16.0002H1.5C1.10218 16.0002 0.720644 16.1582 0.43934 16.4395C0.158035 16.7208 0 17.1023 0 17.5002V21.5002C0 21.898 0.158035 22.2795 0.43934 22.5608C0.720644 22.8421 1.10218 23.0002 1.5 23.0002ZM5.5 18.0002C5.79667 18.0002 6.08668 18.0881 6.33335 18.2529C6.58003 18.4178 6.77229 18.652 6.88582 18.9261C6.99935 19.2002 7.02906 19.5018 6.97118 19.7928C6.9133 20.0838 6.77044 20.351 6.56066 20.5608C6.35088 20.7706 6.08361 20.9135 5.79264 20.9713C5.50166 21.0292 5.20006 20.9995 4.92597 20.886C4.65189 20.7724 4.41762 20.5802 4.2528 20.3335C4.08797 20.0868 4 19.7968 4 19.5002C4 19.1023 4.15804 18.7208 4.43934 18.4395C4.72064 18.1582 5.10218 18.0002 5.5 18.0002Z" fill="#528978" style="fill:#528978;fill:color(display-p3 0.3222 0.5369 0.4725);fill-opacity:1;"/>
<path d="M25.4998 11.0001H4.49976C3.83696 11.0009 3.20153 11.2646 2.73287 11.7333C2.2642 12.2019 2.00055 12.8373 1.99976 13.5001V15.0001H7.49976C8.16255 15.0009 8.79798 15.2646 9.26665 15.7333C9.73532 16.2019 9.99896 16.8373 9.99976 17.5001V21.5001C9.99896 22.1629 9.73532 22.7984 9.26665 23.267C8.79798 23.7357 8.16255 23.9994 7.49976 24.0001H1.99976V25.5001C2.00055 26.1629 2.2642 26.7984 2.73287 27.267C3.20153 27.7357 3.83696 27.9994 4.49976 28.0001H25.4998C26.1626 27.9994 26.798 27.7357 27.2666 27.267C27.7353 26.7984 27.999 26.1629 27.9998 25.5001V13.5001C27.999 12.8373 27.7353 12.2019 27.2666 11.7333C26.798 11.2646 26.1626 11.0009 25.4998 11.0001ZM22.4998 26.0001H19.4998C19.3671 26.0001 19.24 25.9475 19.1462 25.8537C19.0524 25.7599 18.9998 25.6328 18.9998 25.5001C18.9998 25.3675 19.0524 25.2404 19.1462 25.1466C19.24 25.0528 19.3671 25.0001 19.4998 25.0001H22.4998C22.6324 25.0001 22.7595 25.0528 22.8533 25.1466C22.9471 25.2404 22.9998 25.3675 22.9998 25.5001C22.9998 25.6328 22.9471 25.7599 22.8533 25.8537C22.7595 25.9475 22.6324 26.0001 22.4998 26.0001ZM25.4998 26.0001H24.4998C24.3671 26.0001 24.24 25.9475 24.1462 25.8537C24.0524 25.7599 23.9998 25.6328 23.9998 25.5001C23.9998 25.3675 24.0524 25.2404 24.1462 25.1466C24.24 25.0528 24.3671 25.0001 24.4998 25.0001H25.4998C25.6324 25.0001 25.7595 25.0528 25.8533 25.1466C25.9471 25.2404 25.9998 25.3675 25.9998 25.5001C25.9998 25.6328 25.9471 25.7599 25.8533 25.8537C25.7595 25.9475 25.6324 26.0001 25.4998 26.0001Z" fill="#528978" style="fill:#528978;fill:color(display-p3 0.3222 0.5369 0.4725);fill-opacity:1;"/>
<path d="M5.55664 10.0001H10.2731C11.4792 8.65722 12.5856 7.22809 13.5836 5.72415C14.3435 4.57064 15.0377 3.37524 15.6631 2.14365L10.5276 1.01315C10.3963 0.982664 10.2588 0.992421 10.1331 1.04115C10.0888 1.06007 10.0479 1.08626 10.0121 1.11865C9.96502 1.16267 9.9286 1.21688 9.90564 1.27715C9.71507 2.03539 9.48526 2.78323 9.21714 3.51765C9.11264 3.80365 8.78014 4.69015 8.27864 5.71765C7.53152 7.24088 6.61866 8.67706 5.55664 10.0001Z" fill="#528978" style="fill:#528978;fill:color(display-p3 0.3222 0.5369 0.4725);fill-opacity:1;"/>
<path d="M24.6339 10.0001C26.4674 6.85015 27.7769 4.53565 27.9339 4.16465C28.0009 4.02908 28.0143 3.87318 27.9714 3.72815C27.9447 3.65597 27.9027 3.59045 27.8482 3.53614C27.7938 3.48183 27.7281 3.44003 27.6559 3.41365L18.2859 0.0296492C18.1786 -0.00744288 18.0623 -0.00977333 17.9536 0.0229892C17.8449 0.0557518 17.7493 0.12194 17.6804 0.212149C16.7782 2.32796 15.6861 4.35761 14.4174 6.27615C13.5554 7.57402 12.6144 8.8177 11.5999 10.0001H24.6339Z" fill="#528978" style="fill:#528978;fill:color(display-p3 0.3222 0.5369 0.4725);fill-opacity:1;"/>
</svg>
