<svg width="30" height="31" viewBox="0 0 30 31" fill="none" xmlns="http://www.w3.org/2000/svg">
<path d="M18.9087 0C13.3174 0 8.78467 4.53277 8.78467 10.124C8.78467 12.5898 9.66768 14.8479 11.1327 16.6039C11.3026 16.5928 11.4703 16.5661 11.6425 16.5661C12.1656 16.5661 12.6888 16.6205 13.1975 16.7272L17.9635 17.7268C19.2186 17.9911 20.1993 18.923 20.5814 20.0981C25.3752 19.2995 29.0327 15.1444 29.0327 10.124C29.0316 4.53277 24.5 0 18.9087 0ZM19.9028 14.7312V15.281C19.9028 15.833 19.4552 16.2807 18.9032 16.2807C18.3511 16.2807 17.9035 15.833 17.9035 15.281V15.0089C17.3682 15.0078 16.8461 14.799 16.4607 14.4269C16.0553 14.0348 15.831 13.5072 15.831 12.943C15.831 12.391 16.2786 11.9434 16.8306 11.9434C17.3826 11.9434 17.8302 12.391 17.8302 12.943C17.8302 12.9508 17.8302 12.9708 17.8502 12.9896C18.3067 12.9852 20.3515 12.8797 20.3748 11.9834C20.3804 11.7557 19.9394 11.388 18.6788 11.1015C16.4341 10.5905 15.3478 9.58979 15.4478 8.127C15.5022 7.32174 15.9331 6.07665 17.9035 5.52241V4.96706C17.9035 4.41504 18.3511 3.96742 18.9032 3.96742C19.4552 3.96742 19.9028 4.41504 19.9028 4.96706V5.24695C20.4415 5.24917 20.9491 5.44355 21.3378 5.81785C21.7388 6.20549 21.9698 6.74862 21.9698 7.3073C21.9698 7.85932 21.5222 8.30693 20.9702 8.30693C20.4182 8.30693 19.9705 7.85932 19.9705 7.3073C19.0176 7.27398 17.497 7.44503 17.4415 8.26028C17.4293 8.44577 17.6314 8.81008 19.1242 9.14996C21.3178 9.64977 22.4107 10.6194 22.3741 12.0333C22.3552 12.7142 22.0431 14.1281 19.9028 14.7312Z" fill="#528978" style="fill:#528978;fill:color(display-p3 0.3216 0.5373 0.4706);fill-opacity:1;"/>
<path d="M4.48057 29.5391C4.48057 29.8479 4.22844 30.1 3.91966 30.1H1.27064C0.5709 30.1 0 29.5302 0 28.8293V19.254C0 18.5531 0.56979 17.9834 1.27064 17.9834H3.91855C4.22844 17.9834 4.47946 18.2355 4.47946 18.5443L4.48057 29.5391ZM26.9745 23.9945L24.0522 26.8012C23.3203 27.5043 22.4095 27.9963 21.4188 28.224L16.0452 29.4569C15.1811 29.6557 14.2703 29.6457 13.4128 29.428L6.47872 27.6776V20.8923L8.47576 19.535C9.72863 18.6809 11.3014 18.3721 12.7864 18.6831L17.5513 19.6827C18.2521 19.8304 18.7597 20.4558 18.7597 21.1733C18.7597 22.013 18.0778 22.6949 17.2381 22.6949H13.9526C13.4006 22.6949 12.953 23.1426 12.953 23.6946C12.953 24.2466 13.4006 24.6942 13.9526 24.6942H17.2381H19.0108C19.695 24.6942 20.3603 24.4965 20.9334 24.1222L24.9674 21.4921C25.5861 21.09 26.4014 21.1877 26.9067 21.7231L27.0256 21.8475C27.5987 22.455 27.5754 23.4169 26.9745 23.9945Z" fill="#528978" style="fill:#528978;fill:color(display-p3 0.3216 0.5373 0.4706);fill-opacity:1;"/>
</svg>
