<svg width="24" height="33" viewBox="0 0 24 33" fill="none" xmlns="http://www.w3.org/2000/svg">
<path d="M8.79986 21.4952C10.1083 21.4952 11.3383 22.0047 12.2635 22.93C12.4299 23.0966 12.6389 23.198 12.8556 23.2193L17.7285 23.6975C18.0803 23.732 18.3997 23.8631 18.6632 24.0618L21.5282 21.1969C21.8792 20.8459 22.346 20.6525 22.8423 20.6525C23.0032 20.6525 23.1608 20.6731 23.3125 20.7125C23.7501 19.8068 24 18.7347 24 17.4759C24 14.0394 19.6169 9.76828 16.8274 7.3979H12.8727C10.0832 9.76875 5.69931 14.0411 5.69931 17.4759C5.69931 19.2875 6.21668 20.7126 7.06746 21.8103C7.61388 21.6041 8.1984 21.4952 8.79986 21.4952ZM11.9948 18.6795C12.1533 18.4696 12.4519 18.4281 12.6619 18.5866C13.2862 19.0583 14.1215 19.3031 14.9545 19.2581C14.9622 19.2577 14.9699 19.2575 14.9776 19.2574C15.4779 19.2548 16.0945 19.1061 16.325 18.697C16.4948 18.3982 16.558 18.1795 16.531 17.9865C16.4984 17.775 16.4304 17.5884 16.3354 17.4529C16.1883 17.2551 15.9788 17.0998 15.6138 16.9178C15.3272 16.7762 15.0044 16.6386 14.6921 16.5055C14.3977 16.3799 14.0932 16.2502 13.8116 16.114C13.4904 15.9633 13.1813 15.76 12.9224 15.5283C12.4723 15.143 12.2232 14.6037 12.2384 14.0478C12.253 13.5178 12.5031 13.0413 12.9428 12.7056C13.3277 12.4036 13.8051 12.2208 14.3645 12.1603V11.2561C14.3645 10.9931 14.5777 10.7799 14.8407 10.7799C15.1037 10.7799 15.317 10.9931 15.317 11.2561V12.1727C16.0023 12.2636 16.6367 12.5329 17.2101 12.9769C17.4181 13.138 17.456 13.4371 17.295 13.645C17.134 13.8529 16.8348 13.891 16.6269 13.7299C16.036 13.2722 15.3897 13.0635 14.6533 13.0931C14.1887 13.1128 13.8099 13.235 13.5288 13.4564C13.5267 13.458 13.5246 13.4597 13.5225 13.4613C13.3119 13.6214 13.1971 13.8333 13.1905 14.0739C13.1831 14.3421 13.3122 14.6094 13.5446 14.8071C13.5478 14.8099 13.551 14.8127 13.5541 14.8154C13.7457 14.9875 13.9764 15.1392 14.2213 15.2541C14.4875 15.3828 14.7684 15.5025 15.0656 15.6292C15.3899 15.7675 15.7252 15.9104 16.0373 16.0645C16.3959 16.2434 16.8018 16.4808 17.1045 16.8909C17.1062 16.8933 17.108 16.8957 17.1097 16.8981C17.2938 17.1576 17.4162 17.4771 17.4732 17.8478C17.5495 18.392 17.3275 18.8603 17.154 19.1658C16.831 19.7393 16.1571 20.1106 15.317 20.1921V21.0605C15.317 21.3235 15.1037 21.5367 14.8407 21.5367C14.5777 21.5367 14.3645 21.3235 14.3645 21.0605V20.1979C13.5307 20.1256 12.726 19.8286 12.0878 19.3465C11.8779 19.188 11.8363 18.8894 11.9948 18.6795ZM22.8423 21.6049C22.6003 21.6049 22.3729 21.6992 22.2017 21.8703L19.2552 24.8167C19.3748 25.0952 19.4281 25.4066 19.3964 25.7289C19.3022 26.6873 18.4917 27.4057 17.5481 27.4057C17.4875 27.4057 17.4266 27.4028 17.365 27.3968L13.7478 27.0412C13.4861 27.0154 13.2948 26.7824 13.3205 26.5207C13.3463 26.259 13.5789 26.0676 13.841 26.0933L17.4581 26.4489C17.9573 26.4984 18.3996 26.133 18.4485 25.6358C18.4723 25.3949 18.4007 25.1592 18.2471 24.9722C18.0935 24.7851 17.8763 24.669 17.6354 24.6453L12.7626 24.1672C12.3266 24.1244 11.9114 23.9252 11.5933 23.6067C10.8448 22.8581 9.85392 22.4476 8.79986 22.4476C7.74593 22.4476 6.75493 22.8581 6.00966 23.6034L3.13395 26.4791L6.60323 29.9484L6.70262 29.849C7.50878 29.0428 8.69298 28.7274 9.79344 29.0257L14.6904 30.3538C15.4624 30.563 16.2931 30.3417 16.8584 29.7763L23.483 23.1517C23.6542 22.9806 23.7484 22.7531 23.7484 22.511C23.7484 22.269 23.6541 22.0416 23.483 21.8704C23.3119 21.6992 23.0844 21.6049 22.8423 21.6049ZM12.8138 6.44554H16.8856V4.94187H12.8138V6.44554ZM12.8547 3.98944H13.4507C13.2957 3.48221 13.1588 2.85585 13.0364 2.10276C12.9941 1.84315 13.1704 1.59845 13.4299 1.55627C13.6893 1.51423 13.9342 1.69015 13.9764 1.94982C14.1366 2.9347 14.306 3.57459 14.454 3.98944H16.8447C18.0554 3.00355 18.7204 1.30401 18.9712 0.536972L18.3284 0.178044C17.9031 -0.0593819 17.3952 -0.0593139 16.97 0.178044L15.9933 0.723511C15.2773 1.12346 14.4222 1.12346 13.7061 0.723511L12.7295 0.178044C12.3107 -0.0558444 11.7901 -0.0559124 11.3711 0.178044L10.7282 0.53704C10.9789 1.30388 11.6439 3.00348 12.8547 3.98944ZM0 28.0573L4.88097 32.9384C4.88097 32.9384 4.88097 32.9384 4.88104 32.9384L6.56363 31.2558L1.68259 26.3747L0 28.0573Z" fill="#528978" style="fill:#528978;fill:color(display-p3 0.3216 0.5373 0.4706);fill-opacity:1;"/>
<ellipse cx="14.3999" cy="15.9" rx="4.8" ry="6" fill="#528978" style="fill:#528978;fill:color(display-p3 0.3216 0.5373 0.4706);fill-opacity:1;"/>
</svg>
